<svg width="49" height="53" viewBox="0 0 49 53" fill="none" xmlns="http://www.w3.org/2000/svg">
<path d="M11.6058 31.7116C8.77826 25.3827 11.1379 17.8127 17.2729 14.2707C23.408 10.7286 31.1436 12.47 35.2108 18.0832L41.9582 14.1876C35.7336 4.97894 23.3532 2.02267 13.578 7.66637C3.80286 13.3101 0.172856 25.51 5.03554 35.5049L11.6058 31.7116Z" fill="#93CBDF"/>
<path d="M36.8859 20.4776C39.7134 26.8066 37.3538 34.3765 31.2188 37.9186C25.0837 41.4606 17.3481 39.7192 13.2809 34.106L6.53353 38.0016C12.7581 47.2103 25.1385 50.1665 34.9137 44.5228C44.6888 38.8791 48.3188 26.6793 43.4562 16.6843L36.8859 20.4776Z" fill="#89D1BD"/>
<path d="M18.8493 26.3301L15.0802 24.8828C14.7295 24.7481 14.7295 24.2519 15.0802 24.1172L23.7832 20.7753C24.2447 20.5981 24.7556 20.5981 25.2171 20.7753L33.9201 24.1172C34.2708 24.2519 34.2708 24.7481 33.9201 24.8828L30.151 26.3301" stroke="#171717" stroke-width="2" stroke-linecap="round" stroke-linejoin="round"/>
<path d="M26.104 27.5C26.104 28.0523 26.5517 28.5 27.104 28.5C27.6563 28.5 28.104 28.0523 28.104 27.5H26.104ZM26.104 21.5V27.5H28.104V21.5H26.104Z" fill="#171717"/>
<path d="M18.771 26.5V30.5L24.5002 32.5L30.2293 30.5V26.5C30.2293 26.5 29.7085 24.5 24.5002 24.5C19.2918 24.5 18.771 26.5 18.771 26.5Z" stroke="#171717" stroke-width="2" stroke-linecap="round" stroke-linejoin="round"/>
</svg>
